<svg width="336" height="66" viewBox="0 0 336 66" fill="none" xmlns="http://www.w3.org/2000/svg">
<rect x="34" y="42" width="14" height="13" fill="#FFC700"/>
<rect x="122" y="42" width="14" height="13" fill="#FFC700"/>
<rect x="192" y="41" width="14" height="13" fill="#FFC700"/>
<path d="M17.5103 27.2759C17.5103 26.6493 17.2865 26.161 16.8389 25.811C16.3994 25.4611 15.6222 25.099 14.5073 24.7246C13.3924 24.3503 12.481 23.9881 11.7729 23.6382C9.46989 22.507 8.31836 20.9526 8.31836 18.9751C8.31836 17.9904 8.60319 17.1237 9.17285 16.375C9.75065 15.6182 10.5645 15.0322 11.6143 14.6172C12.6641 14.194 13.8441 13.9824 15.1543 13.9824C16.432 13.9824 17.5754 14.2103 18.5845 14.666C19.6017 15.1217 20.3911 15.7728 20.9526 16.6191C21.5142 17.4574 21.7949 18.4176 21.7949 19.5H17.5225C17.5225 18.7757 17.2987 18.2142 16.8511 17.8154C16.4116 17.4167 15.8135 17.2173 15.0566 17.2173C14.2917 17.2173 13.6854 17.3882 13.2378 17.73C12.7983 18.0636 12.5786 18.4909 12.5786 19.0117C12.5786 19.4674 12.8228 19.8825 13.311 20.2568C13.7993 20.623 14.6579 21.0055 15.8867 21.4043C17.1156 21.7949 18.1247 22.2181 18.9141 22.6738C20.8346 23.7806 21.7949 25.3065 21.7949 27.2515C21.7949 28.8058 21.209 30.0265 20.0371 30.9136C18.8652 31.8006 17.258 32.2441 15.2153 32.2441C13.7749 32.2441 12.4688 31.9878 11.2969 31.4751C10.1331 30.9543 9.25423 30.2463 8.66016 29.3511C8.07422 28.4478 7.78125 27.4102 7.78125 26.2383H12.0781C12.0781 27.1904 12.3223 27.8944 12.8105 28.3501C13.307 28.7977 14.1086 29.0215 15.2153 29.0215C15.9233 29.0215 16.4808 28.8709 16.8877 28.5698C17.3027 28.2606 17.5103 27.8293 17.5103 27.2759ZM220.809 28.6797H214.938L213.912 32H209.334L215.853 14.2266H219.881L226.449 32H221.847L220.809 28.6797ZM215.963 25.3716H219.784L217.867 19.207L215.963 25.3716Z" fill="#FFC700"/>
<path d="M34.3374 28.6797H28.4658L27.4404 32H22.8628L29.3813 14.2266H33.4097L39.9771 32H35.375L34.3374 28.6797ZM29.4912 25.3716H33.312L31.3955 19.207L29.4912 25.3716ZM54.021 17.5347H48.6865V32H44.4019V17.5347H39.165V14.2266H54.021V17.5347ZM62.7915 21.9414L66.063 14.2266H70.6895L64.9644 25.6157V32H60.6187V25.6157L54.9058 14.2266H59.5078L62.7915 21.9414ZM80.4976 28.6797H74.626L73.6006 32H69.0229L75.5415 14.2266H79.5698L86.1372 32H81.5352L80.4976 28.6797ZM75.6514 25.3716H79.4722L77.5557 19.207L75.6514 25.3716ZM102.537 32H98.2769L91.978 20.9404V32H87.6934V14.2266H91.978L98.2646 25.2861V14.2266H102.537V32ZM115.812 28.6797H109.94L108.915 32H104.337L110.856 14.2266H114.884L121.452 32H116.85L115.812 28.6797ZM110.966 25.3716H114.787L112.87 19.207L110.966 25.3716ZM129.612 25.7256H127.292V32H123.008V14.2266H130.002C132.11 14.2266 133.758 14.6945 134.946 15.6304C136.134 16.5662 136.729 17.8887 136.729 19.5977C136.729 20.8346 136.476 21.86 135.972 22.6738C135.475 23.4876 134.694 24.1468 133.628 24.6514L137.339 31.8169V32H132.749L129.612 25.7256ZM127.292 22.4175H130.002C130.816 22.4175 131.427 22.2059 131.833 21.7827C132.249 21.3514 132.456 20.7533 132.456 19.9883C132.456 19.2233 132.249 18.6252 131.833 18.1938C131.418 17.7544 130.808 17.5347 130.002 17.5347H127.292V22.4175ZM149.662 28.6797H143.79L142.765 32H138.187L144.706 14.2266H148.734L155.301 32H150.699L149.662 28.6797ZM144.815 25.3716H148.636L146.72 19.207L144.815 25.3716ZM161.533 21.9414L164.804 14.2266H169.431L163.706 25.6157V32H159.36V25.6157L153.647 14.2266H158.249L161.533 21.9414ZM179.239 28.6797H173.367L172.342 32H167.764L174.283 14.2266H178.311L184.878 32H180.276L179.239 28.6797ZM174.393 25.3716H178.213L176.297 19.207L174.393 25.3716ZM201.278 32H197.018L190.719 20.9404V32H186.435V14.2266H190.719L197.006 25.2861V14.2266H201.278V32ZM242.556 29.8027C241.896 30.5352 240.932 31.1252 239.663 31.5728C238.393 32.0203 237.001 32.2441 235.488 32.2441C233.16 32.2441 231.301 31.5321 229.909 30.1079C228.518 28.6838 227.773 26.7021 227.675 24.1631L227.663 22.625C227.663 20.8753 227.972 19.3494 228.591 18.0474C229.209 16.7371 230.092 15.7321 231.24 15.0322C232.395 14.3242 233.73 13.9702 235.244 13.9702C237.457 13.9702 239.174 14.4788 240.395 15.4961C241.624 16.5052 242.34 18.0148 242.543 20.0249H238.417C238.271 19.0321 237.954 18.3241 237.465 17.9009C236.977 17.4777 236.285 17.2661 235.39 17.2661C234.316 17.2661 233.486 17.7218 232.9 18.6333C232.314 19.5448 232.017 20.8468 232.009 22.5396V23.6138C232.009 25.3879 232.31 26.7225 232.912 27.6177C233.522 28.5047 234.479 28.9482 235.781 28.9482C236.896 28.9482 237.726 28.7 238.271 28.2036V25.4448H235.292V22.5029H242.556V29.8027ZM255.391 28.6797H249.52L248.494 32H243.917L250.435 14.2266H254.463L261.031 32H256.429L255.391 28.6797ZM250.545 25.3716H254.366L252.449 19.207L250.545 25.3716ZM269.191 25.7256H266.872V32H262.587V14.2266H269.582C271.689 14.2266 273.337 14.6945 274.525 15.6304C275.714 16.5662 276.308 17.8887 276.308 19.5977C276.308 20.8346 276.055 21.86 275.551 22.6738C275.054 23.4876 274.273 24.1468 273.207 24.6514L276.918 31.8169V32H272.328L269.191 25.7256ZM266.872 22.4175H269.582C270.395 22.4175 271.006 22.2059 271.413 21.7827C271.828 21.3514 272.035 20.7533 272.035 19.9883C272.035 19.2233 271.828 18.6252 271.413 18.1938C270.998 17.7544 270.387 17.5347 269.582 17.5347H266.872V22.4175ZM292.915 25.3716L294.954 14.2266H299.202L295.43 32H290.986L288.606 21.8682L286.274 32H281.843L278.059 14.2266H282.319L284.358 25.3716L286.799 14.2266H290.437L292.915 25.3716ZM310.682 28.6797H304.811L303.785 32H299.208L305.726 14.2266H309.754L316.322 32H311.72L310.682 28.6797ZM305.836 25.3716H309.657L307.74 19.207L305.836 25.3716ZM322.163 28.7041H329.621V32H317.878V14.2266H322.163V28.7041Z" fill="white"/>
<path fill-rule="evenodd" clip-rule="evenodd" d="M330 39H7V57H330V39ZM40.2324 50.4297L37.4434 43.4688H35.9902V52H37.1152V48.6777L37.0039 45.1094L39.7988 52H40.6602L43.4609 45.0918L43.3555 48.6777V52H44.4805V43.4688H43.0215L40.2324 50.4297ZM54.3263 48.918H51.2091V51.1152H54.8361V52H50.1252V45.1738H54.8009V46.0703H51.2091V48.0273H54.3263V48.918ZM63.5101 50.5117L61.2191 45.1738H59.8128V52H60.8909V49.6504L60.7796 46.5508L63.1058 52H63.9027L66.2347 46.5273L66.1234 49.6504V52H67.2015V45.1738H65.7894L63.5101 50.5117ZM78.3833 48.7891C78.3833 49.8086 78.1138 50.6152 77.5747 51.209C77.0356 51.7988 76.313 52.0938 75.4067 52.0938C74.5122 52.0938 73.7895 51.7949 73.2388 51.1973C72.6919 50.5996 72.4184 49.7871 72.4184 48.7598V48.3965C72.4184 47.3887 72.6899 46.584 73.2329 45.9824C73.7798 45.3809 74.5005 45.0801 75.395 45.0801C76.3052 45.0801 77.0278 45.377 77.563 45.9707C78.102 46.5645 78.3755 47.3594 78.3833 48.3555V48.7891ZM76.8071 46.6094C77.1431 47.0195 77.311 47.6113 77.311 48.3848V48.7891C77.311 49.5664 77.145 50.1621 76.813 50.5762C76.4848 50.9863 76.0161 51.1914 75.4067 51.1914C74.8169 51.1914 74.3501 50.9824 74.0063 50.5645C73.6626 50.1426 73.4907 49.5508 73.4907 48.7891V48.4023C73.4907 47.6328 73.6606 47.0391 74.0005 46.6211C74.3442 46.2031 74.8091 45.9941 75.395 45.9941C76.0005 45.9941 76.4712 46.1992 76.8071 46.6094ZM84.6901 49.3691H86.3248L87.8541 52H89.0143V51.9414L87.3268 49.1172C88.2448 48.7695 88.7038 48.1504 88.7038 47.2598C88.7038 46.5957 88.4772 46.082 88.0241 45.7188C87.5748 45.3555 86.9342 45.1738 86.1022 45.1738H83.6061V52H84.6901V49.3691ZM84.6901 48.4844H86.1315C86.5885 48.4844 86.9498 48.3789 87.2155 48.168C87.485 47.9531 87.6198 47.6641 87.6198 47.3008C87.6198 46.9102 87.4889 46.6074 87.2272 46.3926C86.9655 46.1777 86.5885 46.0703 86.0963 46.0703H84.6901V48.4844ZM95.0457 52H93.9559V45.1738H95.0457V52ZM101.634 50.3652H104.681L105.325 52H106.427L103.661 45.1738H102.688L99.8818 52H100.989L101.634 50.3652ZM101.985 49.4805H104.335L103.169 46.498L101.985 49.4805ZM112.288 51.1152H115.71V52H111.204V45.1738H112.288V51.1152ZM130.515 44.3945H133.257V43.4688H126.66V44.3945H129.396V52H130.515V44.3945ZM141.802 50.3652H138.755L138.111 52H137.004L139.81 45.1738H140.783L143.548 52H142.447L141.802 50.3652ZM141.457 49.4805H139.107L140.291 46.498L141.457 49.4805ZM152.832 51.1152H149.41V45.1738H148.326V52H152.832V51.1152ZM161.922 48.918H158.805V51.1152H162.432V52H157.721V45.1738H162.396V46.0703H158.805V48.0273H161.922V48.918ZM172.037 52H173.115V45.1738H172.037V50.3125L168.492 45.1738H167.408V52H168.492V46.8672L172.037 52ZM183.758 46.0703H181.42V52H180.336V46.0703H178.01V45.1738H183.758V46.0703ZM200.919 51.3848C201.481 50.8926 201.815 50.1953 201.92 49.293H200.79C200.68 49.9961 200.458 50.4902 200.122 50.7754C199.79 51.0566 199.311 51.1973 198.686 51.1973C197.991 51.1973 197.45 50.9238 197.063 50.377C196.676 49.8301 196.483 49.0938 196.483 48.168V47.3418C196.483 46.3613 196.686 45.6055 197.092 45.0742C197.503 44.543 198.067 44.2773 198.786 44.2773C199.372 44.2773 199.827 44.4297 200.151 44.7344C200.479 45.0391 200.692 45.5312 200.79 46.2109H201.92C201.831 45.3164 201.512 44.6172 200.965 44.1133C200.419 43.6055 199.692 43.3516 198.786 43.3516C198.102 43.3516 197.501 43.5137 196.981 43.8379C196.461 44.1582 196.059 44.6191 195.774 45.2207C195.493 45.8223 195.352 46.5195 195.352 47.3125V48.1328C195.352 49.3438 195.655 50.3105 196.26 51.0332C196.87 51.7559 197.678 52.1172 198.686 52.1172C199.616 52.1172 200.36 51.873 200.919 51.3848ZM212.839 48.7891C212.839 49.8086 212.569 50.6152 212.03 51.209C211.491 51.7988 210.768 52.0938 209.862 52.0938C208.967 52.0938 208.245 51.7949 207.694 51.1973C207.147 50.5996 206.874 49.7871 206.874 48.7598V48.3965C206.874 47.3887 207.145 46.584 207.688 45.9824C208.235 45.3809 208.956 45.0801 209.85 45.0801C210.76 45.0801 211.483 45.377 212.018 45.9707C212.557 46.5645 212.831 47.3594 212.839 48.3555V48.7891ZM211.262 46.6094C211.598 47.0195 211.766 47.6113 211.766 48.3848V48.7891C211.766 49.5664 211.6 50.1621 211.268 50.5762C210.94 50.9863 210.471 51.1914 209.862 51.1914C209.272 51.1914 208.805 50.9824 208.462 50.5645C208.118 50.1426 207.946 49.5508 207.946 48.7891V48.4023C207.946 47.6328 208.116 47.0391 208.456 46.6211C208.8 46.2031 209.264 45.9941 209.85 45.9941C210.456 45.9941 210.926 46.1992 211.262 46.6094ZM221.759 50.5117L219.468 45.1738H218.061V52H219.14V49.6504L219.028 46.5508L221.354 52H222.151L224.483 46.5273L224.372 49.6504V52H225.45V45.1738H224.038L221.759 50.5117ZM231.997 49.4336V52H230.913V45.1738H233.649C234.446 45.1738 235.081 45.3691 235.554 45.7598C236.026 46.1465 236.263 46.668 236.263 47.3242C236.263 47.9883 236.034 48.5059 235.577 48.877C235.12 49.248 234.474 49.4336 233.638 49.4336H231.997ZM233.649 48.543H231.997V46.0703H233.679C234.144 46.0742 234.509 46.1934 234.774 46.4277C235.04 46.6582 235.173 46.9609 235.173 47.3359C235.173 47.7266 235.04 48.0254 234.774 48.2324C234.509 48.4395 234.134 48.543 233.649 48.543ZM242.376 48.918H245.493V48.0273H242.376V46.0703H245.968V45.1738H241.292V52H246.003V51.1152H242.376V48.918ZM256.154 46.0703H253.816V52H252.732V46.0703H250.406V45.1738H256.154V46.0703ZM261.119 52H262.209V45.1738H261.119V52ZM272.916 46.0703H270.578V52H269.494V46.0703H267.168V45.1738H272.916V46.0703ZM277.881 52H278.971V45.1738H277.881V52ZM290.223 48.7891C290.223 49.8086 289.953 50.6152 289.414 51.209C288.875 51.7988 288.152 52.0938 287.246 52.0938C286.352 52.0938 285.629 51.7949 285.078 51.1973C284.531 50.5996 284.258 49.7871 284.258 48.7598V48.3965C284.258 47.3887 284.529 46.584 285.072 45.9824C285.619 45.3809 286.34 45.0801 287.234 45.0801C288.145 45.0801 288.867 45.377 289.402 45.9707C289.941 46.5645 290.215 47.3594 290.223 48.3555V48.7891ZM288.646 46.6094C288.982 47.0195 289.15 47.6113 289.15 48.3848V48.7891C289.15 49.5664 288.984 50.1621 288.652 50.5762C288.324 50.9863 287.855 51.1914 287.246 51.1914C286.656 51.1914 286.189 50.9824 285.846 50.5645C285.502 50.1426 285.33 49.5508 285.33 48.7891V48.4023C285.33 47.6328 285.5 47.0391 285.84 46.6211C286.184 46.2031 286.648 45.9941 287.234 45.9941C287.84 45.9941 288.311 46.1992 288.646 46.6094ZM300.074 52H301.152V45.1738H300.074V50.3125L296.529 45.1738H295.445V52H296.529V46.8672L300.074 52Z" fill="white"/>
</svg>
